<svg xmlns="http://www.w3.org/2000/svg" width="512" height="512" version="1.1" viewBox="0 0 135.47 135.47"><defs><linearGradient id="a" x2="1" gradientTransform="matrix(25.118 43.506 -43.506 25.118 25.812 45.935)" gradientUnits="userSpaceOnUse"><stop offset="0" stop-color="#32a651"/><stop offset="1" stop-color="#279847"/></linearGradient><linearGradient id="b" x2="1" gradientTransform="matrix(61.286 0 0 61.286 29.399 42.333)" gradientUnits="userSpaceOnUse"><stop offset="0" stop-color="#db3328"/><stop offset="1" stop-color="#e53d30"/></linearGradient><clipPath id="c"><path d="m8.5744 96h0.00446v-0.0078h-0.00446z"/></clipPath><clipPath id="d"><path d="m8.5744 96h0.00446v-0.0078h-0.00446z"/></clipPath></defs><g><g clip-path="url(#d)" opacity=".5" transform="matrix(1.0583 0 0 -1.0583 0 135.47)"><g><path fill="#d663ff" d="m0 0-4e-3 8e-3z" transform="translate(8.5789 95.992)"/></g></g><g clip-path="url(#c)" opacity=".5" transform="matrix(1.0583 0 0 -1.0583 0 135.47)"><g><path fill="#9963ff" d="m0 0-4e-3 8e-3z" transform="translate(8.5789 95.992)"/></g></g></g><path fill="#fbbf12" d="m67.733 67.733 29.33 16.933-29.33 50.8c37.408 0 67.733-30.325 67.733-67.733 0-12.341-3.3168-23.901-9.0837-33.867h-58.65z"/><path fill="url(#b)" d="m67.733-1e-6c-25.07 0-46.942 13.63-58.654 33.875l29.324 50.792 29.33-16.933v-33.867h58.65c-11.714-20.24-33.583-33.867-58.65-33.867z"/><path fill="url(#a)" d="m0 67.733c0 37.408 30.324 67.733 67.733 67.733l29.33-50.8-29.33-16.933-29.33 16.933-29.324-50.792c-5.7637 9.9632-9.0794 21.519-9.0794 33.858"/><path fill="#fff" d="m101.6 67.733c0 18.704-15.163 33.867-33.867 33.867-18.704 0-33.867-15.163-33.867-33.867s15.163-33.867 33.867-33.867c18.704 0 33.867 15.163 33.867 33.867"/><path fill="#1a73e8" d="m95.25 67.733c0 15.197-12.32 27.517-27.517 27.517-15.197 0-27.517-12.32-27.517-27.517 0-15.197 12.32-27.517 27.517-27.517 15.197 0 27.517 12.32 27.517 27.517"/></svg>