<svg xmlns="http://www.w3.org/2000/svg" xmlns:xlink="http://www.w3.org/1999/xlink" id="レイヤー_1" x="0" y="0" version="1.1" viewBox="0 0 864 864" xml:space="preserve" style="enable-background:new 0 0 864 864"><style type="text/css">.st0{fill:#252525}.st1{fill:url(#左部分_4_)}.st2{fill:url(#右部分_4_)}.st3{fill:url(#左部分_5_)}.st4{fill:url(#右部分_5_)}</style><rect id="背景" width="865" height="864" x="-1" class="st0"/><g id="外部分"><linearGradient id="左部分_4_" x1="-1" x2="682" y1="432" y2="432" gradientUnits="userSpaceOnUse"><stop offset="0" style="stop-color:#ffe052"/><stop offset="1" style="stop-color:#ffc331"/></linearGradient><path id="左部分_1_" d="M59,433C59,227,226,60,432,60c61.8,0,120,15,171.3,41.6L682,0H-1v864h101l109.9-131.3 C118.3,664.7,59,555.8,59,433z" class="st1"/><linearGradient id="右部分_4_" x1="100" x2="864" y1="432" y2="432" gradientUnits="userSpaceOnUse"><stop offset="0" style="stop-color:#387eb8"/><stop offset="1" style="stop-color:#366994"/></linearGradient><path id="右部分_1_" d="M682,0l-78.7,101.6C723.1,163.7,805,288.8,805,433c0,206-167,373-373,373 c-83.2,0-160.1-27.3-222.1-73.3L100,864h764V0H682z" class="st2"/></g><g id="中部分" transform="matrix(2.4487775,0,0,2.4487775,-122.74035,-167.21029)"><linearGradient id="左部分_5_" x1="92.67" x2="235.668" y1="362.394" y2="218.917" gradientTransform="matrix(2.4488 0 0 -2.4488 -123.332 1032.6189)" gradientUnits="userSpaceOnUse"><stop offset="0" style="stop-color:#387eb8"/><stop offset="1" style="stop-color:#366994"/></linearGradient><path id="左部分" d="M195.6,159.9 c0,0-27.4-0.6-56.2,21c0,0-28.8,52.2-28.8,116.6c0,0,16.8,29,61,30.4c0,0,7.4-9,13.4-16.6c-25.3-7.6-34.9-23.5-35-23.6l-1-1.5 c1.3-8.8,5.5-22.8,20.6-29.6c0-12.2,9-22.1,20.4-22.1c10.2,0,18.6,8,20.1,18.5h32.8c1.6-10.4,9.9-18.2,20.1-18.5 c9.1-0.3,16.2,7.2,19.7,16.5c12.7-8.1,16-16.2,16-34.5l0.1-22.4c-13.9-12.2-38.1-22.5-54.4-24.4c-18-2-36.7-1.4-54.4,2.3 c-11.4,2.3-22.5,6.1-33.1,10.7c-7.4,3.4-11.8,5.8-11.8,5.8s16.6-15.8,52.6-26.2L195.6,159.9z" class="st3"/><linearGradient id="右部分_5_" x1="138.337" x2="289.537" y1="334.594" y2="189.737" gradientTransform="matrix(2.4488 0 0 -2.4488 -123.332 1032.6189)" gradientUnits="userSpaceOnUse"><stop offset="0" style="stop-color:#ffe052"/><stop offset="1" style="stop-color:#ffc331"/></linearGradient><path id="右部分" d="M259,161.3 l-2.8,3.1c17.9,5.1,35.1,14,49.4,25.3v31.1c0,0,0.9,28.4-23,37.5c-0.9,11.1-9.4,19.8-20,19.8c-9.5,0-17.8-8.3-19.8-18l-32.1-0.1 c-2,9.7-10.1,18.1-19.8,18.1c-7.1,0-16-7.1-19.6-13.3c-7.1,3.9-10.8,8.4-13.7,18.7c11.2,12.3,31.5,20.5,45.3,23.2 c14.7,2.8,32,3.7,50.9,0.2c9.2-1.6,18.7-4.3,28.5-8.5c6.9-2.6,14.5-6.3,22.6-11.6c0,0-9.8,16.1-35.6,23.4c5.9,7.5,13,15.9,13,15.9 c43.4-1.4,60.1-29.9,60.1-29.9c0-63.3-28.3-114.6-28.3-114.6C285.9,160.8,259,161.3,259,161.3z" class="st4"/></g></svg>