<svg xmlns="http://www.w3.org/2000/svg" xmlns:xlink="http://www.w3.org/1999/xlink" width="100%" height="100%" version="1.1" viewBox="0 0 480 480" xml:space="preserve" style="fill-rule:evenodd;clip-rule:evenodd;stroke-linejoin:round;stroke-miterlimit:2"><g><path d="M419,133.396C419,85.713 381.211,47 334.667,47L135.333,47C88.789,47 51,85.713 51,133.396L51,337.604C51,385.287 88.789,424 135.333,424L334.667,424C381.211,424 419,385.287 419,337.604L419,133.396Z" transform="matrix(1.30435,0,0,1.27321,-66.5217,-59.8408)" style="fill:url(#_Linear1)"/></g><g transform="matrix(5.78313,0,0,5.78313,-109.88,-104.096)"><circle cx="40.625" cy="59.5" r="6.625" style="fill:#fff"/><circle cx="60.5" cy="59.5" r="6.625" style="fill:#fff"/><circle cx="40.625" cy="79.375" r="6.625" style="fill:#fff;fill-opacity:.2"/><circle cx="80.375" cy="79.375" r="6.625" style="fill:#fff;fill-opacity:.2"/><circle cx="60.5" cy="79.375" r="6.625" style="fill:#fff"/><circle cx="80.375" cy="59.5" r="6.625" style="fill:#fff"/><circle cx="40.625" cy="39.625" r="6.625" style="fill:#fff;fill-opacity:.2"/><circle cx="60.5" cy="39.625" r="6.625" style="fill:#fff;fill-opacity:.2"/><circle cx="80.375" cy="39.625" r="6.625" style="fill:#fff;fill-opacity:.2"/></g><defs><linearGradient id="_Linear1" x1="0" x2="1" y1="0" y2="0" gradientTransform="matrix(0.000443373,377,-368,0.000454217,235,47)" gradientUnits="userSpaceOnUse"><stop offset="0" style="stop-color:#23201f;stop-opacity:1"/><stop offset="1" style="stop-color:#1d2024;stop-opacity:1"/></linearGradient></defs></svg>